<svg width="187" height="146" viewBox="0 0 187 146" fill="none" xmlns="http://www.w3.org/2000/svg">
<path d="M106.69 130.02L102.49 126.17C102.49 126.17 115.23 112.25 134.35 91.3901C143.86 81.0001 154.95 68.8801 166.83 55.8901C168.61 53.7901 169.52 50.77 169.03 47.83C168.8 46.38 168.28 44.98 167.48 43.77L166.83 42.9L166.02 42.04L163.54 39.61C156.95 33.18 150.26 26.64 143.57 20.1C141.41 18.09 138.31 17.31 135.44 17.91C134.02 18.23 132.7 18.87 131.57 19.79C131.26 19.98 131.04 20.29 130.76 20.52C130.47 20.79 129.99 21.33 129.62 21.72L127.23 24.26C120.87 31.02 114.6 37.68 108.54 44.12C96.4199 57 85.0999 69.03 75.4099 79.33C56.0199 99.94 12.5799 141.68 12.5799 141.68L8.42993 137.78C8.42993 137.78 51.8699 96.0301 71.2599 75.4201C80.9599 65.1101 92.2699 53.09 104.39 40.2C110.45 33.76 116.71 27.11 123.08 20.34C124.71 18.68 126.19 16.87 127.97 15.36C129.78 13.89 131.95 12.84 134.24 12.33C136.54 11.85 138.95 11.91 141.24 12.5C143.52 13.09 145.64 14.28 147.39 15.85C154.14 22.44 160.89 29.03 167.53 35.52C169.15 37.18 170.98 38.65 172.23 40.6C173.5 42.52 174.32 44.71 174.66 46.96C175.39 51.46 174.05 56.17 171.18 59.54C159.24 72.59 148.09 84.77 138.54 95.21C119.42 116.08 106.68 130 106.68 130L106.69 130.02Z" fill="#E8B43A"/>
<path d="M110.9 133.87L106.7 130.02C106.7 130.02 119.45 116.1 138.56 95.23C148.11 84.79 159.26 72.6099 171.2 59.5599C174.06 56.1899 175.41 51.4699 174.68 46.9799C174.33 44.7299 173.51 42.5399 172.25 40.6199C171 38.6699 169.17 37.1999 167.55 35.5399C160.91 29.0499 154.15 22.4599 147.41 15.8699C145.66 14.2999 143.54 13.1099 141.26 12.5199C138.98 11.9299 136.57 11.8699 134.26 12.3499C131.97 12.86 129.8 13.9099 127.99 15.3799C126.2 16.8899 124.72 18.7099 123.1 20.3599C116.74 27.1299 110.47 33.7799 104.41 40.2199C92.2898 53.0999 80.9698 65.1299 71.2798 75.4399C51.8898 96.0499 8.44981 137.8 8.44981 137.8L4.2998 133.89C4.2998 133.89 47.7398 92.1499 67.1298 71.5299C76.8298 61.2199 88.1398 49.2 100.26 36.32C106.32 29.88 112.58 23.22 118.95 16.46L121.34 13.9199C121.77 13.4699 122.07 13.1299 122.61 12.5899C123.2 12.0399 123.74 11.4499 124.39 10.9699C126.89 8.93994 129.9 7.47994 133.07 6.78994C136.25 6.12994 139.57 6.19995 142.72 7.01995C145.87 7.84995 148.82 9.47994 151.22 11.6499C158.03 18.2999 164.84 24.9399 171.54 31.4799L174.02 33.9099C174.46 34.3399 175.08 35.0199 175.58 35.5799C176.07 36.1999 176.55 36.8299 177 37.4799C178.74 40.1099 179.85 43.0999 180.32 46.1399C181.3 52.2099 179.51 58.61 175.57 63.26C163.57 76.38 152.38 88.6199 142.78 99.1099C123.66 119.98 110.91 133.89 110.91 133.89L110.9 133.87Z" fill="#E88D3C"/>
<path d="M115.1 137.72L110.9 133.87C110.9 133.87 123.65 119.96 142.77 99.09C152.37 88.59 163.56 76.35 175.56 63.24C179.5 58.6 181.29 52.19 180.31 46.12C179.84 43.08 178.73 40.1 176.99 37.46C176.55 36.81 176.06 36.18 175.57 35.56C175.07 35 174.45 34.32 174.01 33.89L171.53 31.46C164.83 24.92 158.02 18.28 151.21 11.63C148.81 9.47001 145.86 7.83 142.71 7C139.56 6.18 136.23 6.10001 133.06 6.77001C129.89 7.46001 126.88 8.92 124.38 10.95C123.73 11.43 123.19 12.03 122.6 12.57C122.06 13.11 121.76 13.45 121.33 13.9L118.94 16.44C112.57 23.2 106.31 29.86 100.25 36.3C88.1299 49.18 76.8099 61.21 67.1199 71.51C47.7199 92.12 4.28989 133.87 4.28989 133.87L0.139893 129.96C0.139893 129.96 43.5799 88.22 62.9699 67.6C72.6699 57.29 83.9799 45.27 96.0999 32.38C102.16 25.94 108.42 19.28 114.79 12.52L117.18 9.98L117.78 9.34C118.02 9.09 118.08 9.01001 118.52 8.58001C119.26 7.88001 119.96 7.13 120.79 6.51C123.98 3.91 127.82 2.05 131.87 1.17C135.92 0.320003 140.16 0.420006 144.19 1.47001C148.21 2.52001 151.98 4.62 155.04 7.37C161.91 14.06 168.77 20.77 175.53 27.36L178.01 29.79L178.42 30.2L178.94 30.75L179.95 31.87C180.57 32.66 181.19 33.46 181.75 34.28C183.96 37.63 185.37 41.4 185.95 45.23C187.18 52.87 184.94 60.96 179.92 66.88C167.87 80.06 156.62 92.36 146.97 102.91C127.85 123.78 115.11 137.69 115.11 137.69L115.1 137.72Z" fill="#EA653A"/>
<path d="M102.49 126.16L98.2798 122.31C98.2798 122.31 111.03 108.4 130.15 87.52C139.61 77.18 150.65 65.12 162.47 52.2C163.17 51.37 163.63 50.04 163.39 48.67C163.29 48.01 163.05 47.4 162.73 46.9C162.64 46.78 162.54 46.67 162.47 46.54C162.41 46.49 162.36 46.44 162.31 46.38L162.24 46.29C162.24 46.29 162.23 46.27 162.2 46.23L162.04 46.08L159.56 43.65C153.03 37.27 146.39 30.78 139.76 24.3C138.92 23.51 137.77 23.25 136.64 23.45C136.1 23.58 135.61 23.82 135.18 24.17C135.05 24.22 134.99 24.38 134.86 24.46C134.86 24.42 134.55 24.78 134.38 24.95L133.78 25.59L131.39 28.13C125.03 34.9 118.76 41.55 112.7 47.99C100.58 60.87 89.2698 72.9 79.5698 83.21C60.1798 103.82 16.7398 145.57 16.7398 145.57L12.5898 141.66C12.5898 141.66 56.0298 99.92 75.4198 79.31C85.1198 69 96.4298 56.98 108.55 44.1C114.61 37.66 120.87 31 127.24 24.24L129.63 21.7C130 21.31 130.48 20.78 130.77 20.5C131.05 20.27 131.27 19.96 131.58 19.77C132.71 18.86 134.03 18.21 135.45 17.89C138.31 17.29 141.42 18.07 143.58 20.08C150.27 26.62 156.96 33.15 163.55 39.59L166.03 42.02L166.84 42.88L167.49 43.75C168.28 44.96 168.81 46.36 169.04 47.81C169.53 50.75 168.62 53.77 166.84 55.87C154.96 68.86 143.87 80.98 134.36 91.37C115.24 112.24 102.5 126.15 102.5 126.15L102.49 126.16Z" fill="#E2C792"/>
</svg>
