<svg width="332" height="304" viewBox="0 0 332 304" fill="none" xmlns="http://www.w3.org/2000/svg">
<path d="M10.1501 107.72L5.07007 102.91C5.07007 102.91 32.3501 74.1 73.2601 30.89C75.8201 28.19 78.4301 25.43 81.0901 22.62C82.4201 21.21 83.7601 19.8 85.1201 18.37C86.2701 17.14 88.3701 14.95 90.4601 13.48C99.0101 7.18002 111.44 6.01002 121.39 11.47C122.65 12.11 123.81 12.92 124.96 13.74C125.54 14.15 126.05 14.63 126.6 15.09L127.41 15.79L128.03 16.37C129.6 17.86 131.18 19.35 132.76 20.85C135.94 23.86 139.15 26.9 142.4 29.98C148.9 36.13 155.54 42.42 162.29 48.81C169.04 55.2 175.91 61.7 182.86 68.28C184.83 70.17 185.76 71 187.21 71.9C188.6 72.77 190.17 73.33 191.78 73.69C195.01 74.42 198.53 74 201.52 72.56C203.03 71.86 204.41 70.9 205.58 69.7C205.84 69.48 206.28 69.01 206.71 68.55L207.98 67.22L210.51 64.55L215.59 59.19L218.13 56.5L219.4 55.16L220.05 54.48L220.93 53.64C225.57 49.06 231.9 46.24 238.35 45.63C244.82 44.95 251.51 46.63 257 50.2C257.67 50.67 258.36 51.11 259 51.61L260.86 53.2L263.63 55.8L269.03 60.91C272.63 64.32 276.22 67.72 279.8 71.11C286.98 77.9 294.12 84.67 301.21 91.38C304.75 94.73 308.29 98.08 311.8 101.4L314.43 103.89L315.09 104.51C315.29 104.7 315.53 104.92 315.83 105.24L317.47 106.96C319.52 109.38 321.19 112.12 322.38 115.04C324.79 120.89 325.08 127.41 323.55 133.43C322.74 136.43 321.45 139.29 319.77 141.89C319.33 142.52 318.9 143.17 318.44 143.78L316.94 145.54C315.99 146.61 315.3 147.29 314.46 148.19C288.89 175.2 265.02 200.4 244.57 222.01C242.01 224.71 239.51 227.36 237.06 229.94C234.26 232.86 233.06 234.1 232.04 236.35C230.09 240.54 230.21 245.41 231.99 249.12C232.89 251.03 233.99 252.5 235.56 254C237.61 255.94 239.59 257.81 241.48 259.61C245.28 263.21 248.77 266.51 251.92 269.5C264.52 281.43 271.72 288.25 271.72 288.25L266.91 293.33C266.91 293.33 259.71 286.51 247.1 274.58C243.95 271.6 240.46 268.3 236.67 264.7C234.77 262.9 232.8 261.03 230.74 259.09C228.69 257.16 226.88 254.79 225.62 252.04C223.04 246.58 222.82 239.56 225.69 233.39C227.04 230.24 229.5 227.68 231.96 225.14C234.41 222.55 236.91 219.91 239.47 217.21C259.93 195.61 283.79 170.4 309.36 143.4C310.93 141.7 312.65 140.08 313.89 138.08C315.16 136.12 316.14 133.95 316.76 131.67C317.91 127.1 317.71 122.11 315.87 117.68C314.97 115.46 313.71 113.39 312.16 111.55C310.54 109.77 308.72 108.17 306.98 106.49C303.47 103.16 299.94 99.82 296.39 96.47C289.3 89.76 282.15 82.99 274.98 76.2C271.39 72.8 267.8 69.4 264.2 65.99L258.8 60.88C256.98 59.2 255.27 57.36 253.16 56.05C249.01 53.36 243.93 52.06 238.99 52.58C234.07 53.05 229.28 55.17 225.77 58.65C222.3 62.17 218.97 65.8 215.57 69.35C212.15 72.82 209.09 76.9 204.51 78.87C200.11 80.98 195.02 81.58 190.3 80.53C187.94 80.01 185.65 79.17 183.6 77.9C181.53 76.66 179.76 75.02 178.04 73.36C171.09 66.78 164.23 60.28 157.48 53.89C150.73 47.49 144.09 41.21 137.59 35.06C134.34 31.98 131.13 28.94 127.95 25.93C126.36 24.43 124.79 22.94 123.22 21.45C121.64 19.98 119.97 18.6 118.07 17.63C110.54 13.48 101.03 14.38 94.5701 19.14C92.9401 20.31 91.5501 21.75 90.2001 23.18C88.8401 24.61 87.5001 26.03 86.1701 27.43C83.5101 30.24 80.9001 33 78.3401 35.7C37.4301 78.91 10.1501 107.71 10.1501 107.71V107.72Z" fill="#E8B43A"/>
<path d="M15.2299 112.53L10.1499 107.72C10.1499 107.72 37.4299 78.9099 78.3399 35.7099C80.8999 33.0099 83.5099 30.2499 86.1699 27.4399C87.4999 26.0399 88.8399 24.6199 90.1999 23.1899C91.5499 21.7599 92.9299 20.3199 94.5699 19.1499C101.03 14.3799 110.54 13.4899 118.07 17.6399C119.97 18.6099 121.65 19.9899 123.22 21.4599C124.79 22.9499 126.36 24.4399 127.95 25.9399C131.13 28.9499 134.34 31.9899 137.59 35.0699C144.09 41.2199 150.73 47.5099 157.48 53.8999C164.23 60.2899 171.09 66.7899 178.04 73.3699C179.76 75.0299 181.53 76.6699 183.6 77.9099C185.65 79.1699 187.95 80.02 190.3 80.5399C195.02 81.59 200.12 80.9899 204.51 78.8799C209.08 76.9099 212.15 72.8299 215.57 69.3599C218.97 65.8099 222.3 62.1799 225.77 58.6599C229.28 55.1699 234.07 53.0599 238.99 52.5899C243.93 52.0599 249 53.3699 253.16 56.0599C255.28 57.3699 256.98 59.21 258.8 60.89L264.2 65.9999C267.8 69.4099 271.39 72.8099 274.98 76.2099C282.15 82.9999 289.3 89.77 296.39 96.4799C299.93 99.8299 303.46 103.18 306.98 106.5C308.72 108.18 310.54 109.77 312.16 111.56C313.71 113.4 314.97 115.47 315.87 117.69C317.71 122.12 317.91 127.11 316.76 131.68C316.14 133.96 315.16 136.13 313.89 138.09C312.65 140.09 310.93 141.71 309.36 143.41C283.79 170.41 259.92 195.62 239.47 217.22C236.91 219.92 234.41 222.57 231.96 225.15C229.5 227.7 227.04 230.26 225.69 233.4C222.82 239.57 223.04 246.6 225.62 252.05C226.88 254.8 228.69 257.17 230.74 259.1C232.79 261.04 234.77 262.91 236.67 264.71C240.47 268.31 243.95 271.61 247.1 274.59C259.7 286.52 266.91 293.34 266.91 293.34L262.1 298.42C262.1 298.42 254.9 291.6 242.3 279.67C239.15 276.68 235.66 273.38 231.86 269.78C229.96 267.99 227.98 266.11 225.93 264.17C223.4 261.8 220.88 258.55 219.26 254.96C215.87 247.75 215.56 238.57 219.36 230.42C219.82 229.4 220.41 228.44 220.96 227.45C221.61 226.52 222.21 225.55 222.94 224.67C224.55 222.72 225.65 221.65 226.89 220.33C229.34 217.74 231.84 215.1 234.4 212.4C254.86 190.8 278.72 165.59 304.29 138.59L305.49 137.32L306.09 136.69C306.31 136.47 306.49 136.27 306.59 136.14L307.37 135.23L308.05 134.25C308.91 132.91 309.58 131.44 310.01 129.89C310.78 126.76 310.67 123.31 309.4 120.3C308.78 118.79 307.93 117.39 306.88 116.13L306.03 115.24C305.92 115.11 305.72 114.91 305.48 114.7L304.83 114.08L302.2 111.59C298.69 108.26 295.16 104.92 291.62 101.57C284.53 94.8599 277.38 88.0999 270.21 81.2999C266.62 77.8999 263.03 74.4999 259.43 71.0899L254.03 65.9799L251.37 63.4799L250.41 62.6499L249.37 61.9299C246.55 60.1099 243.08 59.1899 239.68 59.5699C236.3 59.8999 233.04 61.3199 230.66 63.7099L230.19 64.14L229.57 64.7999L228.3 66.1499L225.75 68.8299L220.67 74.1899L218.14 76.8599L216.87 78.2C216.45 78.6399 216.06 79.07 215.42 79.67C213.15 81.96 210.46 83.8399 207.55 85.2099C201.74 87.9899 195.08 88.7599 188.86 87.3999C185.76 86.7199 182.73 85.5899 180.02 83.9299C177.33 82.3499 174.72 79.9099 173.25 78.4699C166.3 71.8899 159.44 65.3899 152.69 58.9999C145.94 52.6099 139.3 46.3199 132.8 40.1699C129.55 37.0899 126.33 34.0499 123.16 31.0399C121.57 29.5399 119.99 28.0499 118.43 26.5599L117.87 26.0299L117.45 25.6799C117.16 25.4599 116.91 25.1799 116.61 24.9799C116 24.5699 115.42 24.1299 114.77 23.8199C109.67 20.9899 103.07 21.6099 98.7099 24.8499C96.9099 26.0999 93.9099 29.6099 91.2899 32.2899C88.6299 35.0999 86.0199 37.8499 83.4599 40.5599C42.5499 83.7699 15.2699 112.58 15.2699 112.58L15.2299 112.53Z" fill="#E88D3C"/>
<path d="M20.31 117.33L15.23 112.52C15.23 112.52 42.51 83.71 83.42 40.5C85.98 37.8 88.59 35.04 91.25 32.23C93.86 29.55 96.87 26.04 98.67 24.79C103.03 21.55 109.63 20.92 114.73 23.76C115.38 24.07 115.97 24.51 116.57 24.92C116.87 25.12 117.13 25.4 117.41 25.62L117.83 25.97L118.39 26.5C119.96 27.98 121.54 29.48 123.12 30.98C126.29 33.99 129.51 37.03 132.76 40.11C139.26 46.26 145.9 52.55 152.65 58.94C159.4 65.33 166.26 71.83 173.21 78.41C174.68 79.84 177.3 82.29 179.98 83.87C182.69 85.53 185.72 86.66 188.82 87.34C195.04 88.71 201.7 87.94 207.51 85.15C210.42 83.78 213.12 81.9 215.38 79.61C216.03 79 216.42 78.58 216.83 78.14L218.1 76.8L220.63 74.13L225.71 68.77L228.26 66.09L229.53 64.74L230.15 64.08L230.62 63.65C233.01 61.26 236.26 59.84 239.64 59.51C243.04 59.13 246.51 60.06 249.33 61.87L250.37 62.59L251.33 63.42L253.99 65.92L259.39 71.03C262.99 74.44 266.58 77.84 270.17 81.24C277.34 88.03 284.49 94.8 291.58 101.51C295.12 104.87 298.65 108.21 302.16 111.53L304.79 114.02L305.44 114.64C305.68 114.86 305.88 115.05 305.99 115.18L306.84 116.07C307.89 117.33 308.74 118.73 309.36 120.24C310.63 123.26 310.74 126.71 309.97 129.83C309.54 131.38 308.87 132.85 308.01 134.19L307.33 135.17L306.55 136.08C306.45 136.21 306.27 136.41 306.05 136.63L305.45 137.26L304.25 138.53C278.68 165.53 254.81 190.74 234.36 212.34C231.8 215.04 229.3 217.69 226.85 220.27C225.61 221.59 224.51 222.66 222.9 224.61C222.17 225.49 221.57 226.47 220.92 227.39C220.37 228.38 219.78 229.35 219.32 230.36C215.52 238.51 215.83 247.69 219.22 254.9C220.84 258.49 223.35 261.74 225.89 264.11C227.94 266.05 229.92 267.92 231.82 269.72C235.61 273.32 239.1 276.62 242.26 279.61C254.86 291.54 262.06 298.36 262.06 298.36L257.25 303.44C257.25 303.44 250.05 296.62 237.45 284.69C234.3 281.71 230.81 278.4 227.01 274.81C225.11 273.01 223.14 271.14 221.09 269.2C220.9 269.03 220.43 268.55 220.03 268.14L218.82 266.87C218 266.03 217.32 265.05 216.57 264.11C215.15 262.18 213.9 260.07 212.86 257.82C208.67 248.86 208.27 237.53 212.98 227.4C213.55 226.14 214.28 224.93 214.96 223.71C215.75 222.55 216.52 221.35 217.42 220.25L218.81 218.62L219.48 217.87L219.93 217.39C220.54 216.75 221.14 216.11 221.76 215.46C224.21 212.88 226.71 210.23 229.27 207.53C245.89 189.98 269.67 164.86 299.16 133.71L300.36 132.44L300.96 131.8L301.26 131.48L301.37 131.34C301.5 131.17 301.64 131.01 301.79 130.86C301.91 130.68 302.01 130.5 302.14 130.33C302.59 129.62 302.95 128.85 303.19 128.02C303.57 126.34 303.56 124.43 302.85 122.82C302.52 122.02 302.07 121.28 301.52 120.6C301.35 120.45 301.2 120.3 301.05 120.13L300.93 119.99L300.61 119.68L299.95 119.06L297.32 116.57C293.81 113.24 290.28 109.9 286.73 106.55C279.64 99.84 272.49 93.08 265.32 86.28C261.73 82.89 258.14 79.49 254.54 76.08L249.14 70.97L246.54 68.52C246.36 68.38 246.18 68.23 246.02 68.07C245.84 67.94 245.64 67.83 245.47 67.69C242.53 65.66 237.88 66.08 235.44 68.64L235.18 68.86L234.57 69.5L233.3 70.84L230.76 73.53L225.68 78.89L223.15 81.57L221.88 82.91L221.25 83.58L220.27 84.55C217.45 87.38 214.1 89.73 210.49 91.43C203.27 94.89 195.03 95.83 187.33 94.14C183.48 93.3 179.73 91.89 176.35 89.83C173.05 87.92 169.59 84.66 168.37 83.46C161.42 76.88 154.56 70.38 147.8 63.99C141.05 57.6 134.41 51.31 127.91 45.16C124.66 42.08 121.45 39.04 118.27 36.04C116.68 34.54 115.1 33.04 113.54 31.56L113 31.06L112.77 30.88C112.61 30.76 112.49 30.6 112.32 30.5C111.99 30.29 111.7 30.04 111.34 29.89C108.66 28.38 104.98 28.72 102.71 30.44C102.43 30.68 102.12 30.86 101.89 31.15L101.69 31.33L101.57 31.43L101.31 31.7L100.29 32.78C98.94 34.21 97.59 35.63 96.26 37.04C93.6 39.85 90.99 42.6 88.43 45.31C47.51 88.52 20.24 117.32 20.24 117.32L20.31 117.33Z" fill="#EA653A"/>
<path d="M5.08 102.91L0 98.1C0 98.1 27.27 69.29 68.19 26.08C70.75 23.38 73.36 20.62 76.02 17.81C77.35 16.4 78.69 14.99 80.05 13.56L81.07 12.48L81.33 12.21L81.75 11.8L82.62 10.96C83.77 9.81 85.06 8.79999 86.37 7.80999C91.7 3.96999 98.19 1.52 104.9 1.07C108.25 0.799998 111.67 1.02999 115.02 1.74999C118.38 2.42999 121.67 3.64 124.73 5.32C126.29 6.12 127.74 7.10999 129.16 8.13999C129.88 8.64999 130.52 9.23999 131.2 9.80999L132.2 10.68L132.84 11.28C134.41 12.76 135.99 14.26 137.57 15.76C140.75 18.77 143.96 21.81 147.21 24.88C153.71 31.04 160.35 37.32 167.1 43.71C173.85 50.1 180.72 56.6 187.67 63.18C189.88 65.29 189.98 65.31 190.81 65.88C191.54 66.35 192.38 66.62 193.25 66.82C194.99 67.23 196.94 66.98 198.52 66.21C199.32 65.84 200.05 65.35 200.67 64.69C200.79 64.57 200.76 64.64 201.01 64.38L201.64 63.71L202.9 62.37L205.43 59.7L210.5 54.34L213.04 51.65L214.32 50.31L214.98 49.61L216.07 48.55C221.84 42.86 229.7 39.36 237.69 38.61C245.69 37.79 253.99 39.85 260.82 44.28C261.66 44.86 262.5 45.42 263.3 46.04L265.61 48.01L268.43 50.66L273.83 55.77C277.43 59.17 281.02 62.58 284.61 65.97C291.79 72.76 298.93 79.52 306.02 86.24C309.57 89.59 313.1 92.94 316.61 96.26L319.24 98.75L319.9 99.37L320.23 99.68L320.74 100.19L322.77 102.33C325.33 105.33 327.4 108.74 328.87 112.37C331.85 119.63 332.22 127.7 330.31 135.15C329.31 138.88 327.71 142.44 325.61 145.66C325.07 146.45 324.53 147.25 323.95 148.01L322.09 150.19L321.63 150.71L321.33 151.03L320.73 151.66L319.53 152.93C293.96 179.93 270.1 205.14 249.64 226.74C247.08 229.44 244.58 232.09 242.13 234.67C241.52 235.32 240.91 235.96 240.3 236.6L239.85 237.08C239.71 237.24 239.73 237.24 239.66 237.32C239.56 237.45 239.45 237.57 239.34 237.68C239.12 237.92 239 238.2 238.79 238.43C238.68 238.72 238.48 238.96 238.36 239.25C237.34 241.46 237.37 244.18 238.34 246.14C238.58 246.63 238.84 247.1 239.16 247.52C239.35 247.71 239.44 247.96 239.65 248.13L239.92 248.41C240.02 248.51 240.03 248.56 240.36 248.86C242.41 250.8 244.38 252.67 246.28 254.47C250.08 258.06 253.57 261.37 256.72 264.35C269.32 276.28 276.52 283.1 276.52 283.1L271.71 288.18C271.71 288.18 264.51 281.36 251.91 269.43C248.76 266.44 245.27 263.14 241.47 259.54C239.57 257.74 237.59 255.87 235.55 253.93C233.98 252.43 232.88 250.96 231.98 249.05C230.2 245.34 230.08 240.47 232.03 236.28C233.05 234.03 234.25 232.79 237.05 229.87C239.5 227.29 242 224.64 244.56 221.94C265.02 200.34 288.88 175.13 314.45 148.12C315.28 147.23 315.98 146.54 316.93 145.47L318.43 143.71C318.89 143.1 319.32 142.45 319.76 141.82C321.44 139.22 322.73 136.36 323.54 133.36C325.07 127.35 324.79 120.82 322.37 114.97C321.18 112.05 319.52 109.31 317.46 106.89L315.82 105.17C315.52 104.86 315.29 104.63 315.08 104.44L314.42 103.82L311.79 101.33C308.28 98.01 304.75 94.66 301.2 91.31C294.11 84.6 286.97 77.83 279.79 71.04C276.21 67.64 272.61 64.24 269.02 60.84L263.62 55.73L260.85 53.13L258.99 51.54C258.34 51.04 257.66 50.59 256.99 50.13C251.5 46.56 244.81 44.88 238.34 45.56C231.88 46.17 225.56 48.98 220.92 53.57L220.04 54.41L219.39 55.09L218.12 56.43L215.58 59.12L210.5 64.48L207.97 67.15L206.7 68.48C206.27 68.94 205.83 69.41 205.57 69.63C204.4 70.83 203.02 71.79 201.51 72.49C198.52 73.93 195 74.35 191.77 73.62C190.16 73.26 188.59 72.7 187.2 71.83C185.75 70.92 184.81 70.1 182.85 68.21C175.9 61.63 169.04 55.13 162.28 48.74C155.53 42.35 148.89 36.06 142.39 29.91C139.14 26.83 135.93 23.79 132.75 20.78C131.16 19.28 129.59 17.78 128.02 16.3L127.4 15.72L126.59 15.02C126.05 14.57 125.53 14.08 124.95 13.67C123.8 12.85 122.64 12.04 121.38 11.4C111.43 5.93998 99.01 7.09999 90.45 13.41C88.35 14.88 86.26 17.08 85.11 18.3C83.75 19.73 82.41 21.15 81.08 22.55C78.42 25.36 75.81 28.12 73.25 30.82C32.35 74.1 5.08 102.91 5.08 102.91Z" fill="#E2C792"/>
</svg>
