<svg width="256" height="239" viewBox="0 0 256 239" fill="none" xmlns="http://www.w3.org/2000/svg">
<path d="M15.74 181.58L8.26001 174.5C8.26001 174.5 29.64 151.92 61.7 118.06C77.73 101.13 96.44 81.37 116.48 60.21C126.5 49.63 136.85 38.69 147.38 27.58L149.35 25.5L150.37 24.43L151.73 23.11C153.52 21.33 155.55 19.78 157.65 18.35C161.88 15.53 166.63 13.45 171.6 12.33C181.51 10.03 192.24 11.34 201.33 16.14C203.62 17.31 205.74 18.76 207.79 20.3L210.7 22.8L212.85 24.82C215.67 27.49 218.49 30.16 221.3 32.82C224.11 35.48 226.92 38.14 229.71 40.78L231.81 42.77L234.42 45.49C236.07 47.41 237.63 49.41 238.91 51.59C244.17 60.22 246.22 70.57 244.71 80.31C243.97 85.18 242.39 89.9 240.09 94.21C238.97 96.39 237.57 98.38 236.13 100.33L233.78 103.08C233.04 103.9 232.49 104.45 231.84 105.15C211.8 126.32 193.1 146.07 177.06 163C145 196.87 110.57 231.72 110.57 231.72L103.09 224.64C103.09 224.64 137.51 189.78 169.58 155.92C185.61 138.99 204.32 119.23 224.36 98.07C229.64 93.04 233.43 86.24 234.53 78.8C235.7 71.38 234.11 63.49 230.13 56.96C228.17 53.66 225.5 50.84 222.64 48.27C219.84 45.62 217.04 42.96 214.23 40.3C211.42 37.64 208.6 34.97 205.78 32.3C204.39 30.94 202.94 29.65 201.45 28.41C199.89 27.25 198.29 26.15 196.55 25.26C189.67 21.63 181.49 20.62 173.94 22.37C170.16 23.22 166.56 24.8 163.36 26.94C160.12 29.05 157.48 31.88 154.87 34.67C144.35 45.78 133.99 56.71 123.97 67.3C103.93 88.47 85.23 108.22 69.19 125.16C37.13 159.03 15.75 181.6 15.75 181.6L15.74 181.58Z" fill="#E8B43A"/>
<path d="M19.23 192.67L15.75 181.59C15.75 181.59 37.12 159.01 69.19 125.15C85.23 108.22 103.93 88.46 123.97 67.29C133.99 56.71 144.34 45.77 154.87 34.66C157.48 31.87 160.13 29.04 163.36 26.93C166.56 24.79 170.16 23.21 173.94 22.36C181.48 20.61 189.67 21.62 196.55 25.25C198.29 26.13 199.89 27.24 201.45 28.4C202.95 29.64 204.4 30.93 205.78 32.29C208.6 34.96 211.41 37.62 214.23 40.29C217.04 42.95 219.85 45.61 222.64 48.26C225.5 50.84 228.17 53.65 230.13 56.95C234.11 63.48 235.7 71.37 234.53 78.79C233.43 86.23 229.64 93.03 224.36 98.06C204.32 119.23 185.61 138.98 169.58 155.91C137.52 189.77 103.09 224.63 103.09 224.63L95.61 217.54C95.61 217.54 130.03 182.68 162.1 148.82C178.13 131.89 196.83 112.13 216.88 90.96C217.47 90.33 218.21 89.58 218.69 89.03L219.91 87.6C220.63 86.58 221.39 85.57 221.95 84.44C223.13 82.22 223.96 79.79 224.35 77.24C225.17 72.14 224.04 66.72 221.34 62.29C220.69 61.16 219.87 60.14 219.03 59.14L217.66 57.7L215.56 55.72C212.76 53.07 209.96 50.42 207.15 47.76C204.34 45.09 201.52 42.43 198.7 39.76L196.61 37.79L195.09 36.5C194.02 35.72 192.94 34.96 191.76 34.37C187.09 31.91 181.46 31.2 176.28 32.39C173.69 32.96 171.24 34.05 169.07 35.51C168 36.26 166.93 37.02 166.02 37.97L165.3 38.64L164.34 39.65L162.37 41.74C151.85 52.85 141.49 63.79 131.47 74.37C111.43 95.53 92.73 115.29 76.69 132.22C44.63 166.08 19.25 192.66 19.25 192.66L19.23 192.67Z" fill="#E88D3C"/>
<path d="M30.71 195.75L19.23 192.67C19.23 192.67 44.61 166.09 76.67 132.23C92.71 115.3 111.41 95.54 131.45 74.38C141.47 63.79 151.83 52.86 162.35 41.75L164.32 39.66L165.28 38.65L166 37.98C166.91 37.03 167.98 36.26 169.05 35.52C171.22 34.06 173.67 32.98 176.26 32.4C181.44 31.2 187.07 31.91 191.74 34.38C192.92 34.97 194 35.74 195.07 36.51L196.59 37.8L198.68 39.77C201.5 42.44 204.32 45.11 207.13 47.77C209.94 50.43 212.75 53.09 215.54 55.73L217.64 57.71L219.01 59.15C219.84 60.15 220.67 61.17 221.32 62.3C224.01 66.72 225.15 72.15 224.33 77.25C223.94 79.79 223.12 82.23 221.93 84.45C221.37 85.58 220.62 86.59 219.89 87.61L218.67 89.04C218.19 89.59 217.45 90.33 216.86 90.97C196.82 112.14 178.11 131.89 162.08 148.83C130.02 182.69 95.59 217.55 95.59 217.55L88.11 210.47C88.11 210.47 122.53 175.61 154.59 141.75C170.62 124.82 189.33 105.06 209.37 83.9L210.31 82.9L210.78 82.4L211.02 82.15C211.08 82.08 211.08 82.07 211.11 82.03C211.31 81.76 211.53 81.5 211.76 81.26C212.12 80.7 212.55 80.19 212.83 79.58C213.45 78.41 213.9 77.12 214.12 75.74C214.59 72.97 213.91 70 212.51 67.68C212.18 67.07 211.72 66.56 211.29 66.01C211.02 65.76 210.83 65.54 210.54 65.21L208.44 63.23C205.64 60.58 202.84 57.92 200.03 55.26C197.22 52.6 194.4 49.93 191.58 47.26L189.51 45.31C189.22 45.1 188.95 44.87 188.69 44.62C188.11 44.23 187.55 43.8 186.92 43.5C184.47 42.2 181.38 41.79 178.57 42.44C177.16 42.74 175.87 43.33 174.73 44.11C174.17 44.51 173.59 44.9 173.11 45.42L172.71 45.77L171.77 46.75L169.79 48.83C159.27 59.94 148.91 70.88 138.9 81.46C118.86 102.62 100.15 122.38 84.12 139.31C52.06 173.18 30.68 195.75 30.68 195.75H30.71Z" fill="#EA653A"/>
<path d="M8.26003 174.5L0.780029 167.41C0.780029 167.41 22.16 144.84 54.22 110.97C70.26 94.04 88.96 74.28 109 53.12C119.02 42.54 129.37 31.6 139.9 20.49L141.87 18.41L142.92 17.31L144.6 15.67C146.82 13.47 149.34 11.53 151.95 9.75999C157.21 6.24999 163.11 3.67999 169.26 2.28999C181.54 -0.570011 194.81 1.05 206.12 7.02C208.96 8.48 211.61 10.26 214.14 12.19C215.36 13.2 216.57 14.23 217.75 15.29L219.92 17.34C222.74 20.01 225.56 22.68 228.37 25.34C231.18 28 233.99 30.66 236.78 33.31L238.88 35.3C239.93 36.35 241.06 37.53 242.11 38.66C244.16 41.03 246.09 43.53 247.69 46.23C254.24 56.97 256.75 69.78 254.88 81.84C253.97 87.88 252.01 93.74 249.14 99.09C247.74 101.79 246.01 104.28 244.21 106.68C243.25 107.84 242.28 108.98 241.29 110.1L239.29 112.24C219.25 133.4 200.55 153.16 184.51 170.09C152.44 203.95 118.02 238.81 118.02 238.81L110.54 231.73C110.54 231.73 144.96 196.88 177.03 163.01C193.06 146.08 211.77 126.33 231.81 105.16C232.46 104.46 233.01 103.91 233.75 103.09L236.1 100.34C237.54 98.4 238.95 96.4 240.06 94.22C242.36 89.92 243.94 85.19 244.68 80.32C246.2 70.58 244.14 60.23 238.88 51.6C237.6 49.42 236.04 47.41 234.39 45.5L231.78 42.78L229.68 40.79C226.89 38.14 224.08 35.49 221.27 32.83C218.46 30.17 215.64 27.5 212.82 24.83L210.67 22.81L207.76 20.31C205.72 18.77 203.59 17.33 201.3 16.15C192.21 11.36 181.48 10.04 171.57 12.34C166.6 13.46 161.85 15.54 157.62 18.36C155.53 19.78 153.49 21.33 151.7 23.12L150.34 24.44L149.32 25.51L147.35 27.59C136.83 38.7 126.47 49.64 116.45 60.22C96.41 81.38 77.71 101.14 61.67 118.07C29.61 151.94 8.23003 174.51 8.23003 174.51L8.26003 174.5Z" fill="#E2C792"/>
</svg>
